<svg xmlns="http://www.w3.org/2000/svg" xmlns:xlink="http://www.w3.org/1999/xlink" width="500" height="500" viewBox="0 0 500 500">
  <defs>
    <clipPath id="clip-Check_Symbol">
      <rect width="500" height="500"/>
    </clipPath>
  </defs>
  <g id="Check_Symbol" data-name="Check Symbol" clip-path="url(#clip-Check_Symbol)">
    <rect id="Rectangle_3" data-name="Rectangle 3" width="500" height="500" rx="250" fill="#49d97f"/>
    <g id="Union_1" data-name="Union 1" transform="translate(295.168 25.126) rotate(42)" fill="#fff">
      <path d="M 169.3661499023438 323.1591491699219 L 126.4820251464844 323.1591491699219 L 0.4999839961528778 323.1591491699219 L 0.4999839961528778 278.9159851074219 L 126.4820251464844 278.9159851074219 L 126.9820251464844 278.9159851074219 L 126.9820251464844 278.4159851074219 L 126.9820251464844 0.499991238117218 L 169.3661499023438 0.499991238117218 L 169.3661499023438 323.1591491699219 Z" stroke="none"/>
      <path d="M 168.8661499023438 322.6591491699219 L 168.8661499023438 0.999991238117218 L 127.4820251464844 0.999991238117218 L 127.4820251464844 279.4159851074219 L 0.9999839663505554 279.4159851074219 L 0.9999839663505554 322.6591491699219 L 168.8661499023438 322.6591491699219 M 169.8661499023438 323.6591491699219 L -1.601155599928461e-05 323.6591491699219 L -1.601155599928461e-05 278.4159851074219 L 126.4820251464844 278.4159851074219 L 126.4820251464844 -8.748372238187585e-06 L 169.8661499023438 -8.748372238187585e-06 L 169.8661499023438 323.6591491699219 Z" stroke="none" fill="#707070"/>
    </g>
  </g>
</svg>
