<svg xmlns="http://www.w3.org/2000/svg" xmlns:xlink="http://www.w3.org/1999/xlink" width="380" height="409" viewBox="0 0 380 409">
  <defs>
    <filter id="Rectangle_1" x="21" y="123" width="323" height="58" filterUnits="userSpaceOnUse">
      <feOffset dy="3" input="SourceAlpha"/>
      <feGaussianBlur stdDeviation="3" result="blur"/>
      <feFlood flood-opacity="0.161"/>
      <feComposite operator="in" in2="blur"/>
      <feComposite in="SourceGraphic"/>
    </filter>
    <filter id="Rectangle_1-2" x="38" y="177" width="323" height="58" filterUnits="userSpaceOnUse">
      <feOffset dy="3" input="SourceAlpha"/>
      <feGaussianBlur stdDeviation="3" result="blur-2"/>
      <feFlood flood-opacity="0.161"/>
      <feComposite operator="in" in2="blur-2"/>
      <feComposite in="SourceGraphic"/>
    </filter>
    <filter id="Rectangle_1-3" x="21" y="287" width="323" height="58" filterUnits="userSpaceOnUse">
      <feOffset dy="3" input="SourceAlpha"/>
      <feGaussianBlur stdDeviation="3" result="blur-3"/>
      <feFlood flood-opacity="0.161"/>
      <feComposite operator="in" in2="blur-3"/>
      <feComposite in="SourceGraphic"/>
    </filter>
    <filter id="Rectangle_1-4" x="21" y="235" width="323" height="58" filterUnits="userSpaceOnUse">
      <feOffset dy="3" input="SourceAlpha"/>
      <feGaussianBlur stdDeviation="3" result="blur-4"/>
      <feFlood flood-opacity="0.161"/>
      <feComposite operator="in" in2="blur-4"/>
      <feComposite in="SourceGraphic"/>
    </filter>
    <clipPath id="clip-path">
      <rect id="Rectangle_2" data-name="Rectangle 2" width="20" height="20"/>
    </clipPath>
    <clipPath id="clip-Poll_Screen">
      <rect width="380" height="409"/>
    </clipPath>
  </defs>
  <g id="Poll_Screen" data-name="Poll Screen" clip-path="url(#clip-Poll_Screen)">
    <rect id="Rectangle_4" data-name="Rectangle 4" width="380" height="410" rx="10" fill="#fff"/>
    <text id="Are_you_a_morning_afternoon_evening_or_night_person_" data-name="Are you a morning, afternoon,
evening or night person?" transform="translate(30 72)" fill="#707070" font-size="20" font-family="Inter-Regular, Inter"><tspan x="0" y="0">Are you a morning, afternoon,</tspan><tspan x="0" y="24">evening or night person?</tspan></text>
    <g id="Option" transform="translate(0 -4)">
      <g transform="matrix(1, 0, 0, 1, 0, 4)" filter="url(#Rectangle_1)">
        <rect id="Rectangle_1-5" data-name="Rectangle 1" width="305" height="40" rx="5" transform="translate(30 129)" fill="#fff"/>
      </g>
      <g id="Ellipse_1" data-name="Ellipse 1" transform="translate(40 143)" fill="#fff" stroke="#707070" stroke-width="1">
        <circle cx="10" cy="10" r="10" stroke="none"/>
        <circle cx="10" cy="10" r="9.5" fill="none"/>
      </g>
      <text id="Morning" transform="translate(68 160)" fill="#707070" font-size="20" font-family="SegoeUI, Segoe UI"><tspan x="0" y="0">Morning</tspan></text>
      <text id="Morning-2" data-name="Morning" transform="translate(68 160)" fill="#707070" font-size="20" font-family="SegoeUI, Segoe UI"><tspan x="0" y="0">Morning</tspan></text>
    </g>
    <g id="Option2" transform="translate(17 50)">
      <g transform="matrix(1, 0, 0, 1, -17, -50)" filter="url(#Rectangle_1-2)">
        <g id="Rectangle_1-6" data-name="Rectangle 1" transform="translate(47 183)" fill="#fff" stroke="#49d97f" stroke-width="1">
          <rect width="305" height="40" rx="5" stroke="none"/>
          <rect x="0.5" y="0.5" width="304" height="39" rx="4.5" fill="none"/>
        </g>
      </g>
      <g id="Ellipse_1-2" data-name="Ellipse 1" transform="translate(40 143)" fill="#fff" stroke="#49d97f" stroke-width="1">
        <circle cx="10" cy="10" r="10" stroke="none"/>
        <circle cx="10" cy="10" r="9.5" fill="none"/>
      </g>
      <text id="Afternoon" transform="translate(68 160)" fill="#707070" font-size="20" font-family="SegoeUI, Segoe UI"><tspan x="0" y="0">Afternoon</tspan></text>
    </g>
    <g id="Option3" transform="translate(0 160)">
      <g transform="matrix(1, 0, 0, 1, 0, -160)" filter="url(#Rectangle_1-3)">
        <rect id="Rectangle_1-7" data-name="Rectangle 1" width="305" height="40" rx="5" transform="translate(30 293)" fill="#fff"/>
      </g>
      <g id="Ellipse_1-3" data-name="Ellipse 1" transform="translate(40 143)" fill="#fff" stroke="#707070" stroke-width="1">
        <circle cx="10" cy="10" r="10" stroke="none"/>
        <circle cx="10" cy="10" r="9.5" fill="none"/>
      </g>
      <text id="Night" transform="translate(68 160)" fill="#707070" font-size="20" font-family="Inter-Regular, Inter"><tspan x="0" y="0">Night</tspan></text>
    </g>
    <g id="Option3-2" data-name="Option3" transform="translate(0 108)">
      <g transform="matrix(1, 0, 0, 1, 0, -108)" filter="url(#Rectangle_1-4)">
        <rect id="Rectangle_1-8" data-name="Rectangle 1" width="305" height="40" rx="5" transform="translate(30 241)" fill="#fff"/>
      </g>
      <g id="Ellipse_1-4" data-name="Ellipse 1" transform="translate(40 143)" fill="#fff" stroke="#707070" stroke-width="1">
        <circle cx="10" cy="10" r="10" stroke="none"/>
        <circle cx="10" cy="10" r="9.5" fill="none"/>
      </g>
      <text id="Evening" transform="translate(68 160)" fill="#707070" font-size="20" font-family="Inter-Regular, Inter"><tspan x="0" y="0">Evening</tspan></text>
    </g>
    <g id="Check_Symbol" data-name="Check Symbol" transform="translate(57 193)" clip-path="url(#clip-path)">
      <rect id="Rectangle_3" data-name="Rectangle 3" width="20" height="20" rx="10" fill="#49d97f"/>
      <g id="Union_1" data-name="Union 1" transform="translate(11.807 1.005) rotate(42)">
        <path id="Path_1" data-name="Path 1" d="M6.755,12.906H0v-1.77H5.059V0h1.7Z" transform="translate(0.02 0.02)" fill="#fff"/>
        <path id="Path_2" data-name="Path 2" d="M6.755,12.906V.04H5.1V11.177H.04v1.73H6.755m.04.04H0v-1.81H5.059V0H6.795Z" transform="translate(0 0)" fill="#707070"/>
      </g>
    </g>
    <rect id="Rectangle_3-2" data-name="Rectangle 3" width="153" height="30" rx="5" transform="translate(30 353)" fill="#49d97f"/>
    <text id="Submit_your_vote" data-name="Submit your vote" transform="translate(51 372)" fill="#fff" font-size="14" font-family="Inter-Regular, Inter"><tspan x="0" y="0">Submit your vote</tspan></text>
    <text id="Jump_to_results_" data-name="Jump to results " transform="translate(223 374)" font-size="14" font-family="Inter-Regular, Inter"><tspan x="0" y="0">Jump to results </tspan></text>
  </g>
</svg>
